<?xml version="1.0" encoding="utf-8"?>
<!-- Generator: Adobe Illustrator 19.2.1, SVG Export Plug-In . SVG Version: 6.00 Build 0)  -->
<svg version="1.1" id="layer" xmlns="http://www.w3.org/2000/svg" xmlns:xlink="http://www.w3.org/1999/xlink" x="0px" y="0px"
	 viewBox="0 0 652 652" style="enable-background:new 0 0 652 652;" xml:space="preserve">
<style type="text/css">
	.st0{fill-rule:evenodd;clip-rule:evenodd;fill:#1F1A17;}
	.st1{fill-rule:evenodd;clip-rule:evenodd;fill:#FFFFFF;}
	.st2{fill-rule:evenodd;clip-rule:evenodd;fill:#AB381C;}
	.st3{fill:#1F1A17;}
</style>
<polygon class="st0" points="209.7,264.8 276.8,264.8 276.8,285.6 242.9,285.6 242.9,377.5 218.2,377.5 218.2,285.6 202.2,285.6 "/>
<polygon class="st0" points="284.8,264.8 369.1,264.8 369.1,285.6 309.6,285.6 309.6,309.7 364.2,309.7 364.2,329 309.6,329 
	309.6,356.6 370.4,356.6 370.4,377.5 284.8,377.5 "/>
<path class="st0" d="M453.8,302.7c-1.6-11.2-12.3-19.8-24.6-19.8c-22.2,0-30.6,19-30.6,38.7c0,18.7,8.4,37.8,30.6,37.8
	c15.2,0,23.6-10.5,25.5-25.3h24c-2.5,28.1-21.9,46.1-49.5,46.1c-34.9,0-55.5-26.1-55.5-58.6c0-33.5,20.6-59.5,55.5-59.5
	c24.8,0,45.6,14.6,48.6,40.6H453.8z"/>
<polygon class="st0" points="487.2,264.8 511.9,264.8 511.9,308 557.5,308 557.5,264.8 582.4,264.8 582.4,377.5 557.5,377.5 
	557.5,328.8 511.9,328.8 511.9,377.5 487.2,377.5 "/>
<polygon class="st1" points="100.7,212 229.2,212 149.2,429.5 20.7,429.5 "/>
<path class="st2" d="M20.7,429.5h128.5l26.2-71.2c-6.1,12.5-19.9,18.9-33.7,18.9H81.4V264.6L20.7,429.5z"/>
<path class="st2" d="M184.4,264.8h25.4l19.4-52.7H100.7l-19.4,52.5h58.2c28,0,33.9,16.7,33.9,28.2c0,11.4-5.2,17.5-13.1,22.1
	c9.5,3.5,18.4,11.5,18.4,28.1c0,3.4-0.4,6.5-1.2,9.4l24.6-66.8h-17.8L184.4,264.8z"/>
<path class="st2" d="M114.1,350.4h19.2c6.9,0,12.8-2,12.8-10.7c0-6.6-3.7-10.3-11.4-10.3h-20.6V350.4z"/>
<path class="st2" d="M142.5,299.1c0-5.8-4.4-7.8-11.2-7.8h-17.3v17.1h17.3C138.2,308.4,142.5,306.3,142.5,299.1"/>
<path class="st3" d="M606.3,265.6c2.4,0,4.8,0.6,7.1,1.8c2.3,1.3,4.1,3,5.4,5.4c1.3,2.3,1.9,4.7,1.9,7.2c0,2.5-0.6,4.8-1.9,7.2
	c-1.3,2.3-3,4.1-5.3,5.3c-2.3,1.3-4.7,1.9-7.2,1.9c-2.5,0-4.9-0.6-7.2-1.9c-2.3-1.3-4.1-3-5.4-5.3c-1.3-2.3-1.9-4.7-1.9-7.2
	c0-2.5,0.6-4.9,1.9-7.2c1.3-2.3,3.1-4.1,5.4-5.4C601.6,266.2,603.9,265.6,606.3,265.6z M606.3,268c-2,0-4,0.5-5.9,1.6
	c-1.9,1-3.4,2.5-4.5,4.4c-1.1,2-1.6,3.9-1.6,6.1c0,2.1,0.5,4,1.6,5.9c1.1,1.9,2.6,3.4,4.5,4.5c1.9,1.1,3.9,1.6,6,1.6
	c2.1,0,4.1-0.5,6-1.6c1.9-1.1,3.4-2.5,4.5-4.5c1.1-1.9,1.6-3.9,1.6-5.9c0-2.1-0.5-4.1-1.6-6.1c-1.1-1.9-2.6-3.4-4.5-4.4
	C610.3,268.5,608.4,268,606.3,268z M600,287.9v-15.5h5.3c1.8,0,3.1,0.1,3.9,0.4c0.8,0.3,1.4,0.8,2,1.5c0.5,0.7,0.7,1.5,0.7,2.3
	c0,1.1-0.4,2.1-1.2,3c-0.8,0.8-1.9,1.3-3.2,1.4c0.5,0.2,1,0.5,1.3,0.8c0.6,0.6,1.4,1.6,2.3,3.1l1.9,3H610l-1.4-2.4
	c-1.1-1.9-2-3.1-2.6-3.6c-0.4-0.4-1.1-0.5-2-0.5h-1.4v6.6H600z M602.5,279.2h3c1.4,0,2.5-0.2,3-0.7c0.5-0.4,0.8-1,0.8-1.7
	c0-0.4-0.1-0.9-0.4-1.2c-0.3-0.4-0.6-0.6-1.1-0.8c-0.5-0.2-1.3-0.3-2.5-0.3h-2.8V279.2z"/>
</svg>
